name GIL01_fast5.mot
datacolumns 153
datarows 4
range 0.54166669 0.56666672
endheader

                time	           pelvis_tx	           pelvis_ty	           pelvis_tz	         pelvis_tilt	         pelvis_list	     pelvis_rotation	       hip_flexion_r	     hip_adduction_r	      hip_rotation_r	        knee_angle_r	       ankle_angle_r	    subtalar_angle_r	         mtp_angle_r	       hip_flexion_l	     hip_adduction_l	      hip_rotation_l	        knee_angle_l	       ankle_angle_l	    subtalar_angle_l	         mtp_angle_l	    lumbar_extension	      lumbar_bending	     lumbar_rotation	     ground_force_vx	     ground_force_vy	     ground_force_vz	     ground_force_px	     ground_force_py	     ground_force_pz	     ground_force_vx	     ground_force_vy	     ground_force_vz	     ground_force_px	     ground_force_py	     ground_force_pz	     ground_torque_x	     ground_torque_y	     ground_torque_z	     ground_torque_x	     ground_torque_y	     ground_torque_z	    ground_marker_px	    ground_marker_py	    ground_marker_pz	    ground_marker_px	    ground_marker_py	    ground_marker_pz	    ground_marker_px	    ground_marker_py	    ground_marker_pz	    ground_marker_px	    ground_marker_py	    ground_marker_pz	    ground_marker_px	    ground_marker_py	    ground_marker_pz	    ground_marker_px	    ground_marker_py	    ground_marker_pz	    ground_marker_px	    ground_marker_py	    ground_marker_pz	    ground_marker_px	    ground_marker_py	    ground_marker_pz	    ground_marker_px	    ground_marker_py	    ground_marker_pz	    ground_marker_px	    ground_marker_py	    ground_marker_pz	    ground_marker_px	    ground_marker_py	    ground_marker_pz	    ground_marker_px	    ground_marker_py	    ground_marker_pz	    ground_marker_px	    ground_marker_py	    ground_marker_pz	    ground_marker_px	    ground_marker_py	    ground_marker_pz	    ground_marker_px	    ground_marker_py	    ground_marker_pz	    ground_marker_px	    ground_marker_py	    ground_marker_pz	    ground_marker_px	    ground_marker_py	    ground_marker_pz	    ground_marker_px	    ground_marker_py	    ground_marker_pz	    ground_marker_px	    ground_marker_py	    ground_marker_pz	    ground_marker_px	    ground_marker_py	    ground_marker_pz	    ground_marker_px	    ground_marker_py	    ground_marker_pz	    ground_marker_px	    ground_marker_py	    ground_marker_pz	    ground_marker_px	    ground_marker_py	    ground_marker_pz	    ground_marker_px	    ground_marker_py	    ground_marker_pz	    ground_marker_px	    ground_marker_py	    ground_marker_pz	    ground_marker_px	    ground_marker_py	    ground_marker_pz	    ground_marker_px	    ground_marker_py	    ground_marker_pz	    ground_marker_px	    ground_marker_py	    ground_marker_pz	    ground_marker_px	    ground_marker_py	    ground_marker_pz	    ground_marker_px	    ground_marker_py	    ground_marker_pz	    ground_marker_px	    ground_marker_py	    ground_marker_pz	    ground_marker_px	    ground_marker_py	    ground_marker_pz	    ground_marker_px	    ground_marker_py	    ground_marker_pz	    ground_marker_px	    ground_marker_py	    ground_marker_pz	    ground_marker_px	    ground_marker_py	    ground_marker_pz	    ground_marker_px	    ground_marker_py	    ground_marker_pz	    ground_marker_px	    ground_marker_py	    ground_marker_pz	
          0.54166669	          1.14381063	          0.76967818	         -0.21383893	         -6.61134911	          4.76306772	         -3.95419312	        -16.47933578	          0.02767007	         -4.48887539	        -13.68917561	         -2.95649719	          0.00000000	          0.00000000	         32.97394943	          4.37699509	          0.26381743	        -12.83732796	        -10.32217884	          0.00000000	          0.00000000	         -1.53777051	         -1.85058379	          3.03192711	         82.39957161	        212.02080491	          8.36210746	          0.78166235	          0.00000000	         -0.20254105	        -52.01851944	        307.14736276	         -2.88655239	          1.27979309	          0.00000000	         -0.26552673	          0.00000000	          0.40328369	          0.00000000	          0.00000000	          0.01853952	          0.00000000	          1.08271194	          0.71036541	         -0.22468159	          1.06244683	          0.70354980	         -0.15956955	          1.07440841	          0.71091235	         -0.28912586	          0.93079686	          0.39483789	         -0.18943195	          1.21571887	          0.41806540	         -0.26770595	          0.71916246	          0.11661349	         -0.20430280	          1.29641151	          0.07142506	         -0.25921613	          1.14381063	          0.76967818	         -0.21383893	          1.13462687	          0.76402545	         -0.11436997	          1.15299439	          0.77533090	         -0.31330791	          0.98767197	          0.82301378	         -0.19672006	          0.98928881	          0.82277292	         -0.25158012	          0.92181098	          0.39342290	         -0.13518943	          1.22276890	          0.41751468	         -0.32174522	          0.95202160	          0.39647183	         -0.23583952	          1.20724022	          0.38439783	         -0.22787602	          0.70803356	          0.12319743	         -0.16910268	          1.29724002	          0.07071213	         -0.29619998	          0.72358561	          0.12247501	         -0.22926714	          1.29820347	          0.06957378	         -0.22954626	          1.01190937	          1.18240917	         -0.23483053	          1.12079966	          1.12775266	         -0.19313009	          1.12352359	          1.13022912	         -0.27065828	          1.10756433	          1.12726247	         -0.23385884	          1.13872087	          1.04609883	         -0.23294903	          1.05781925	          0.47092527	         -0.05764159	          1.29410517	          0.58341873	         -0.26577678	          1.01150525	          0.54975384	         -0.09611794	          1.21381652	          0.60565400	         -0.31665438	          0.98539084	          0.46887296	         -0.11864628	          1.23800445	          0.52205896	         -0.30874985	          0.75534767	          0.22590078	         -0.08924037	          1.30066895	          0.19518486	         -0.36932176	          0.74515510	          0.19385985	         -0.16615279	          1.28208578	          0.15236241	         -0.29877910	          0.77302837	          0.03648303	         -0.19352145	          1.40229046	          0.04543588	         -0.26262379	
          0.55000001	          1.15724874	          0.77074111	         -0.21491808	         -6.33955002	          5.09016418	         -3.36814499	        -16.25612259	         -0.58054960	         -4.75028896	        -15.63729286	         -6.56727076	          0.00000000	          0.00000000	         32.80793762	          5.20411682	          1.54451740	        -14.97698975	         -9.37670898	          0.00000000	          0.00000000	         -1.81065834	         -2.30141592	          3.42245650	         66.31182091	        151.26493720	          9.33667668	          0.78311523	          0.00000000	         -0.20230200	        -61.62181041	        336.22268646	          4.72862086	          1.28777234	          0.00000000	         -0.26600244	          0.00000000	          0.27916272	          0.00000000	          0.00000000	         -0.13123322	          0.00000000	          1.09540415	          0.71058232	         -0.22479887	          1.07668579	          0.70368814	         -0.16058820	          1.08758485	          0.71223491	         -0.29016560	          0.94752264	          0.39395821	         -0.18845053	          1.22933888	          0.41954255	         -0.26781192	          0.72874260	          0.12109485	         -0.20159075	          1.29749978	          0.07059740	         -0.25899830	          1.15724874	          0.77074111	         -0.21491808	          1.14889753	          0.76419228	         -0.11563230	          1.16559982	          0.77728987	         -0.31420386	          1.00068212	          0.82322174	         -0.19572543	          1.00192523	          0.82319725	         -0.25063008	          0.93896061	          0.39264286	         -0.13413697	          1.23738229	          0.41932136	         -0.32171467	          0.96950054	          0.39322335	         -0.23372397	          1.22092962	          0.38718012	         -0.22644244	          0.71737695	          0.12852441	         -0.16663544	          1.29951453	          0.07005791	         -0.29593945	          0.73384261	          0.12721431	         -0.22631761	          1.30057585	          0.06893678	         -0.22932273	          1.02397001	          1.18291724	         -0.23528756	          1.13288879	          1.12854373	         -0.19402422	          1.13436842	          1.13118935	         -0.27143803	          1.11900342	          1.12812769	         -0.23446614	          1.15024960	          1.04699385	         -0.23423485	          1.07502687	          0.47091272	         -0.05740529	          1.30703247	          0.58592081	         -0.26353911	          1.02749872	          0.54903442	         -0.09638746	          1.22807348	          0.60843062	         -0.31511825	          1.00255132	          0.46774223	         -0.11764789	          1.25241244	          0.52497607	         -0.30685660	          0.76684237	          0.23179248	         -0.08762429	          1.30992723	          0.19423373	         -0.36851636	          0.75653142	          0.19900359	         -0.16410792	          1.28710043	          0.15205714	         -0.29902619	          0.77573770	          0.03665430	         -0.19316527	          1.40385854	          0.04237039	         -0.26250684	
          0.55833340	          1.17047274	          0.77211684	         -0.21607915	         -6.00388527	          5.42070818	         -2.82599854	        -15.85000610	         -1.26140618	         -5.01407051	        -17.82557869	        -10.73641396	          0.00000000	          0.00000000	         32.40264893	          6.02621603	          2.82767510	        -16.82655907	         -8.16200352	          0.00000000	          0.00000000	         -2.15436125	         -2.84232068	          4.02492952	         45.24988879	         94.79928091	          8.38903868	          0.78600647	          0.00000000	         -0.20178987	        -71.40410158	        362.57152186	          9.41315731	          1.29470667	          0.00000000	         -0.26610452	          0.00000000	          0.17417819	          0.00000000	          0.00000000	         -0.06346509	          0.00000000	          1.10841274	          0.71125460	         -0.22502282	          1.09075284	          0.70406753	         -0.16174477	          1.10066354	          0.71377528	         -0.29131970	          0.96541446	          0.39262161	         -0.18721098	          1.24205363	          0.42065567	         -0.26801702	          0.73992407	          0.12544829	         -0.19875666	          1.29826081	          0.07005583	         -0.25886098	          1.17047274	          0.77211684	         -0.21607915	          1.16289330	          0.76469254	         -0.11698349	          1.17805219	          0.77954113	         -0.31517479	          1.01357627	          0.82351369	         -0.19487703	          1.01441288	          0.82367617	         -0.24977830	          0.95724624	          0.39146253	         -0.13283327	          1.25110722	          0.42075035	         -0.32175967	          0.98746514	          0.38959226	         -0.23109205	          1.23443687	          0.38900211	         -0.22654989	          0.72832531	          0.13373861	         -0.16407253	          1.30114067	          0.06955425	         -0.29574531	          0.74578696	          0.13156487	         -0.22322011	          1.30182874	          0.06851810	         -0.22896157	          1.03586638	          1.18357956	         -0.23571889	          1.14497566	          1.12952018	         -0.19502924	          1.14495981	          1.13223326	         -0.27212182	          1.13031352	          1.12912560	         -0.23503001	          1.16163468	          1.04802155	         -0.23548429	          1.09300387	          0.47108561	         -0.05686294	          1.31960452	          0.58783859	         -0.26133007	          1.04396868	          0.54808819	         -0.09628607	          1.24169445	          0.61096352	         -0.31338373	          1.02025306	          0.46619302	         -0.11626569	          1.26631474	          0.52759057	         -0.30545691	          0.77986854	          0.23755088	         -0.08589203	          1.31757021	          0.19313298	         -0.36784363	          0.76956016	          0.20387174	         -0.16190015	          1.29174197	          0.15164134	         -0.29926947	          0.77897811	          0.03708705	         -0.19277656	          1.40497530	          0.04031248	         -0.26251543	
          0.56666672	          1.18340266	          0.77367640	         -0.21725598	         -5.65468979	          5.72711134	         -2.35532522	        -15.18897438	         -1.97509897	         -5.27862740	        -20.28172493	        -15.43179893	          0.00000000	          0.00000000	         31.79488754	          6.78550386	          3.95382953	        -18.32083893	         -6.77666807	          0.00000000	          0.00000000	         -2.07091475	         -2.87352705	          1.66711700	         23.80701055	         52.02760553	          5.90468113	          0.79174365	          0.00000000	         -0.20081227	        -76.47753614	        383.48543151	         11.24870570	          1.29983826	          0.00000000	         -0.26589706	          0.00000000	          0.11320736	          0.00000000	          0.00000000	          0.15806213	          0.00000000	          1.12168694	          0.71236300	         -0.22553770	          1.10448885	          0.70466781	         -0.16295455	          1.11353278	          0.71542490	         -0.29251003	          0.98446196	          0.39080614	         -0.18571752	          1.25362623	          0.42140263	         -0.26832974	          0.75269389	          0.12970443	         -0.19586590	          1.29881382	          0.06974684	         -0.25873458	          1.18340266	          0.77367640	         -0.21725598	          1.17649651	          0.76546192	         -0.11832340	          1.19030881	          0.78189081	         -0.31618857	          1.02634752	          0.82386935	         -0.19422852	          1.02675366	          0.82425284	         -0.24909124	          0.97661310	          0.38986024	         -0.13128866	          1.26356530	          0.42173147	         -0.32191479	          1.00952137	          0.38504830	         -0.22850668	          1.24765933	          0.38995406	         -0.22793505	          0.74091685	          0.13882074	         -0.16145015	          1.30235100	          0.06919651	         -0.29556102	          0.75923687	          0.13538536	         -0.22000399	          1.30189884	          0.06838516	         -0.22858474	          1.04767883	          1.18459988	         -0.23608758	          1.15709698	          1.13063478	         -0.19599147	          1.15973198	          1.13346791	         -0.27300736	          1.14382970	          1.13021827	         -0.23646261	          1.17561781	          1.04929650	         -0.23594378	          1.11154342	          0.47141564	         -0.05597334	          1.33178186	          0.58901560	         -0.25951722	          1.06081271	          0.54696232	         -0.09590982	          1.25441182	          0.61294699	         -0.31210807	          1.03979421	          0.46436805	         -0.11470288	          1.27951562	          0.52967292	         -0.30484384	          0.79452842	          0.24296783	         -0.08401889	          1.32396305	          0.19212388	         -0.36730552	          0.78432709	          0.20813064	         -0.15948346	          1.29677045	          0.15127367	         -0.29874709	          0.78282577	          0.03796596	         -0.19234960	          1.40581012	          0.03912622	         -0.26246804	
